<svg width="100" height="100" viewBox="0 0 100 100" fill="none" xmlns="http://www.w3.org/2000/svg">
<path d="M15.5 50.0002C15.5 54.0769 14.6176 57.7429 13.2157 60.3716C11.8023 63.0217 9.93459 64.5002 8 64.5002C6.06541 64.5002 4.19775 63.0217 2.78432 60.3716C1.38236 57.7429 0.5 54.0769 0.5 50.0002C0.5 45.9236 1.38236 42.2576 2.78432 39.6289C4.19775 36.9788 6.06541 35.5002 8 35.5002C9.93459 35.5002 11.8023 36.9788 13.2157 39.6289C14.6176 42.2576 15.5 45.9236 15.5 50.0002Z" stroke="#0A1E25"/>
<path d="M21.5 50.5002C21.5 55.2778 20.6137 59.5788 19.2021 62.6667C17.7703 65.7988 15.894 67.5002 14 67.5002C12.106 67.5002 10.2297 65.7988 8.79788 62.6667C7.38627 59.5788 6.5 55.2778 6.5 50.5002C6.5 45.7227 7.38627 41.4217 8.79788 38.3338C10.2297 35.2017 12.106 33.5002 14 33.5002C15.894 33.5002 17.7703 35.2017 19.2021 38.3338C20.6137 41.4217 21.5 45.7227 21.5 50.5002Z" stroke="#0A1E25"/>
<path d="M27.5 50.0002C27.5 55.4758 26.6113 60.4099 25.1926 63.9567C24.4827 65.7315 23.6499 67.1342 22.7507 68.085C21.8525 69.0348 20.9228 69.5002 20 69.5002C19.0772 69.5002 18.1475 69.0348 17.2493 68.085C16.3501 67.1342 15.5173 65.7315 14.8074 63.9567C13.3887 60.4099 12.5 55.4758 12.5 50.0002C12.5 44.5247 13.3887 39.5906 14.8074 36.0438C15.5173 34.269 16.3501 32.8663 17.2493 31.9155C18.1475 30.9657 19.0772 30.5002 20 30.5002C20.9228 30.5002 21.8525 30.9657 22.7507 31.9155C23.6499 32.8663 24.4827 34.269 25.1926 36.0438C26.6113 39.5906 27.5 44.5247 27.5 50.0002Z" stroke="#0A1E25"/>
<path d="M57.5 50.5002C57.5 59.4468 56.6069 67.5297 55.1713 73.3617C54.4526 76.2816 53.6046 78.6092 52.6818 80.1947C51.7383 81.816 50.8148 82.5002 50 82.5002C49.1852 82.5002 48.2617 81.816 47.3182 80.1947C46.3954 78.6092 45.5474 76.2816 44.8287 73.3617C43.3931 67.5297 42.5 59.4468 42.5 50.5002C42.5 41.5537 43.3931 33.4707 44.8287 27.6388C45.5474 24.7189 46.3954 22.3913 47.3182 20.8058C48.2617 19.1845 49.1852 18.5002 50 18.5002C50.8148 18.5002 51.7383 19.1845 52.6818 20.8058C53.6046 22.3913 54.4526 24.7189 55.1713 27.6388C56.6069 33.4707 57.5 41.5537 57.5 50.5002Z" stroke="#0A1E25"/>
<path d="M63.5 50.0002C63.5 59.6392 62.6066 68.3501 61.1694 74.6376C60.4499 77.7853 59.6002 80.2983 58.6741 82.0121C58.2108 82.8693 57.741 83.5028 57.2788 83.9166C56.8196 84.3278 56.394 84.5002 56 84.5002C55.606 84.5002 55.1804 84.3278 54.7212 83.9166C54.259 83.5028 53.7892 82.8693 53.3259 82.0121C52.3998 80.2983 51.5501 77.7853 50.8306 74.6376C49.3934 68.3501 48.5 59.6392 48.5 50.0002C48.5 40.3613 49.3934 31.6504 50.8306 25.3629C51.5501 22.2152 52.3998 19.7022 53.3259 17.9884C53.7892 17.1312 54.259 16.4977 54.7212 16.0838C55.1804 15.6727 55.606 15.5002 56 15.5002C56.394 15.5002 56.8196 15.6727 57.2788 16.0838C57.741 16.4977 58.2108 17.1312 58.6741 17.9884C59.6002 19.7022 60.4499 22.2152 61.1694 25.3629C62.6066 31.6504 63.5 40.3613 63.5 50.0002Z" stroke="#0A1E25"/>
<path d="M69.5 50.5002C69.5 60.8314 68.6063 70.1697 67.1679 76.9124C66.4478 80.2879 65.5967 82.986 64.6675 84.8281C64.2026 85.75 63.7305 86.4321 63.2662 86.8775C62.8039 87.321 62.3822 87.5002 62 87.5002C61.6178 87.5002 61.1961 87.321 60.7338 86.8775C60.2695 86.4321 59.7974 85.75 59.3325 84.8281C58.4033 82.986 57.5522 80.2879 56.8321 76.9124C55.3937 70.1697 54.5 60.8314 54.5 50.5002C54.5 40.1691 55.3937 30.8307 56.8321 24.0881C57.5522 20.7126 58.4033 18.0145 59.3325 16.1723C59.7974 15.2505 60.2695 14.5684 60.7338 14.1229C61.1961 13.6795 61.6178 13.5002 62 13.5002C62.3822 13.5002 62.8039 13.6795 63.2662 14.1229C63.7305 14.5684 64.2026 15.2505 64.6675 16.1723C65.5967 18.0145 66.4478 20.7126 67.1679 24.0881C68.6063 30.8307 69.5 40.1691 69.5 50.5002Z" stroke="#0A1E25"/>
<path d="M75.5 50.0002C75.5 61.0233 74.6061 70.9889 73.1666 78.1865C72.446 81.7894 71.5937 84.6726 70.6619 86.6431C70.1955 87.6296 69.7214 88.3606 69.2547 88.8381C68.7889 89.3147 68.3705 89.5002 68 89.5002C67.6295 89.5002 67.2111 89.3147 66.7453 88.8381C66.2786 88.3606 65.8045 87.6296 65.3381 86.6431C64.4063 84.6726 63.554 81.7894 62.8334 78.1865C61.3939 70.9889 60.5 61.0233 60.5 50.0002C60.5 38.9772 61.3939 29.0116 62.8334 21.814C63.554 18.2111 64.4063 15.3279 65.3381 13.3574C65.8045 12.3709 66.2786 11.6399 66.7453 11.1624C67.2111 10.6858 67.6295 10.5002 68 10.5002C68.3705 10.5002 68.7889 10.6858 69.2547 11.1624C69.7214 11.6399 70.1955 12.3709 70.6619 13.3574C71.5937 15.3279 72.446 18.2111 73.1666 21.814C74.6061 29.0116 75.5 38.9772 75.5 50.0002Z" stroke="#0A1E25"/>
<path d="M93.5 50.5002C93.5 63.598 92.6056 75.4439 91.1638 84.0048C90.4422 88.2892 89.5873 91.7271 88.6494 94.0825C88.1795 95.2626 87.7 96.1418 87.2262 96.7175C86.7478 97.2987 86.3361 97.5002 86 97.5002C85.6639 97.5002 85.2522 97.2987 84.7738 96.7175C84.3 96.1418 83.8205 95.2626 83.3506 94.0825C82.4127 91.7271 81.5578 88.2892 80.8362 84.0048C79.3944 75.4439 78.5 63.598 78.5 50.5002C78.5 37.4025 79.3944 25.5566 80.8362 16.9957C81.5578 12.7113 82.4127 9.27335 83.3506 6.918C83.8205 5.7379 84.3 4.85864 84.7738 4.28302C85.2522 3.70177 85.6639 3.50024 86 3.50024C86.3361 3.50024 86.7478 3.70177 87.2262 4.28302C87.7 4.85864 88.1795 5.7379 88.6494 6.918C89.5873 9.27335 90.4422 12.7113 91.1638 16.9957C92.6056 25.5566 93.5 37.4025 93.5 50.5002Z" stroke="#0A1E25"/>
<path d="M99.5 50.0002C99.5 63.7893 98.6055 76.2617 97.1631 85.2766C96.4413 89.788 95.5858 93.4106 94.6463 95.8941C94.1755 97.1386 93.6945 98.0676 93.2184 98.6764C92.7355 99.2941 92.3251 99.5002 92 99.5002C91.6749 99.5002 91.2645 99.2941 90.7816 98.6764C90.3055 98.0676 89.8245 97.1386 89.3537 95.8941C88.4142 93.4106 87.5587 89.788 86.8369 85.2766C85.3945 76.2617 84.5 63.7893 84.5 50.0002C84.5 36.2111 85.3945 23.7388 86.8369 14.7239C87.5587 10.2125 88.4142 6.58991 89.3537 4.1064C89.8245 2.86192 90.3055 1.9329 90.7816 1.32405C91.2645 0.706413 91.6749 0.500244 92 0.500244C92.3251 0.500244 92.7355 0.706413 93.2184 1.32405C93.6945 1.9329 94.1755 2.86192 94.6463 4.1064C95.5858 6.58991 96.4413 10.2125 97.1631 14.7239C98.6055 23.7388 99.5 36.2111 99.5 50.0002Z" stroke="#0A1E25"/>
<path d="M33.5 50.5002C33.5 56.6719 32.6098 62.2376 31.1857 66.2426C30.473 68.2474 29.6358 69.8343 28.7312 70.9103C27.8245 71.9889 26.8994 72.5002 26 72.5002C25.1006 72.5002 24.1755 71.9889 23.2688 70.9103C22.3642 69.8343 21.527 68.2474 20.8143 66.2426C19.3902 62.2376 18.5 56.6719 18.5 50.5002C18.5 44.3286 19.3902 38.7629 20.8143 34.7578C21.527 32.7531 22.3642 31.1662 23.2688 30.0901C24.1755 29.0115 25.1006 28.5002 26 28.5002C26.8994 28.5002 27.8245 29.0115 28.7312 30.0901C29.6358 31.1662 30.473 32.7531 31.1857 34.7578C32.6098 38.7629 33.5 44.3286 33.5 50.5002Z" stroke="#0A1E25"/>
<path d="M39.5 50.0002C39.5 56.8667 38.6087 63.0629 37.1806 67.5255C36.4657 69.7597 35.625 71.5314 34.7152 72.7339C33.7993 73.9446 32.8767 74.5002 32 74.5002C31.1233 74.5002 30.2007 73.9446 29.2848 72.7339C28.375 71.5314 27.5343 69.7597 26.8194 67.5255C25.3913 63.0629 24.5 56.8667 24.5 50.0002C24.5 43.1338 25.3913 36.9376 26.8194 32.475C27.5343 30.2408 28.375 28.4691 29.2848 27.2665C30.2007 26.0559 31.1233 25.5002 32 25.5002C32.8767 25.5002 33.7993 26.0559 34.7152 27.2665C35.625 28.4691 36.4657 30.2408 37.1806 32.475C38.6087 36.9376 39.5 43.1338 39.5 50.0002Z" stroke="#0A1E25"/>
<path d="M45.5 50.5002C45.5 58.0606 44.6079 64.8864 43.1768 69.806C42.4602 72.2691 41.6166 74.2261 40.702 75.5558C39.7766 76.9013 38.855 77.5002 38 77.5002C37.145 77.5002 36.2234 76.9013 35.298 75.5558C34.3834 74.2261 33.5398 72.2691 32.8232 69.806C31.3921 64.8864 30.5 58.0606 30.5 50.5002C30.5 42.9399 31.3921 36.1141 32.8232 31.1945C33.5398 28.7313 34.3834 26.7744 35.298 25.4447C36.2234 24.0992 37.145 23.5002 38 23.5002C38.855 23.5002 39.7766 24.0992 40.702 25.4447C41.6166 26.7744 42.4602 28.7313 43.1768 31.1945C44.6079 36.1141 45.5 42.9399 45.5 50.5002Z" stroke="#0A1E25"/>
<path d="M51.5 50.0002C51.5 58.2539 50.6073 65.7086 49.1737 71.0846C48.456 73.7763 47.6099 75.9185 46.691 77.376C45.7563 78.8585 44.8344 79.5002 44 79.5002C43.1656 79.5002 42.2437 78.8585 41.309 77.376C40.3901 75.9185 39.544 73.7763 38.8263 71.0846C37.3927 65.7086 36.5 58.2539 36.5 50.0002C36.5 41.7465 37.3927 34.2919 38.8263 28.9159C39.544 26.2242 40.3901 24.082 41.309 22.6245C42.2437 21.1419 43.1656 20.5002 44 20.5002C44.8344 20.5002 45.7563 21.1419 46.691 22.6245C47.6099 24.082 48.456 26.2242 49.1737 28.9159C50.6073 34.2919 51.5 41.7465 51.5 50.0002Z" stroke="#0A1E25"/>
<path d="M81.5 50.5002C81.5 62.215 80.6059 72.8076 79.1655 80.4598C78.4445 84.29 77.5912 87.3583 76.6572 89.4571C76.1894 90.5082 75.7133 91.2884 75.2443 91.7983C74.7745 92.309 74.3588 92.5002 74 92.5002C73.6412 92.5002 73.2255 92.309 72.7557 91.7983C72.2867 91.2884 71.8106 90.5082 71.3428 89.4571C70.4088 87.3583 69.5555 84.29 68.8345 80.4598C67.3941 72.8076 66.5 62.215 66.5 50.5002C66.5 38.7855 67.3941 28.1929 68.8345 20.5407C69.5555 16.7105 70.4088 13.6422 71.3428 11.5434C71.8106 10.4923 72.2867 9.71208 72.7557 9.2022C73.2255 8.6915 73.6412 8.50024 74 8.50024C74.3588 8.50024 74.7745 8.6915 75.2443 9.2022C75.7133 9.71208 76.1894 10.4923 76.6572 11.5434C77.5912 13.6422 78.4445 16.7105 79.1655 20.5407C80.6059 28.1929 81.5 38.7855 81.5 50.5002Z" stroke="#0A1E25"/>
<path d="M87.5 50.0002C87.5 62.4066 86.6058 73.6259 85.1646 81.7325C84.4433 85.7899 83.5891 89.0431 82.653 91.2702C82.1841 92.3858 81.7062 93.2155 81.2348 93.7581C80.7608 94.3037 80.3474 94.5002 80 94.5002C79.6526 94.5002 79.2392 94.3037 78.7652 93.7581C78.2938 93.2155 77.8159 92.3858 77.347 91.2702C76.4109 89.0431 75.5567 85.7899 74.8354 81.7325C73.3942 73.6259 72.5 62.4066 72.5 50.0002C72.5 37.5939 73.3942 26.3746 74.8354 18.268C75.5567 14.2106 76.4109 10.9574 77.347 8.73031C77.8159 7.61467 78.2938 6.78502 78.7652 6.2424C79.2392 5.69682 79.6526 5.50024 80 5.50024C80.3474 5.50024 80.7608 5.69682 81.2348 6.2424C81.7062 6.78502 82.1841 7.61467 82.653 8.73031C83.5891 10.9574 84.4433 14.2106 85.1646 18.268C86.6058 26.3746 87.5 37.5939 87.5 50.0002Z" stroke="#0A1E25"/>
</svg>
