<svg width="100" height="100" viewBox="0 0 100 100" fill="none" xmlns="http://www.w3.org/2000/svg">
<path d="M99.5 77.5002C99.5 83.3941 94.1671 88.8966 85.1502 92.9542C76.1802 96.9907 63.7532 99.5002 50 99.5002C36.2468 99.5002 23.8198 96.9907 14.8498 92.9542C5.83292 88.8966 0.5 83.3941 0.5 77.5002C0.5 71.6063 5.83292 66.1039 14.8498 62.0463C23.8198 58.0098 36.2468 55.5002 50 55.5002C63.7532 55.5002 76.1802 58.0098 85.1502 62.0463C94.1671 66.1039 99.5 71.6063 99.5 77.5002Z" stroke="#0A1E25"/>
<path d="M99.5 50.5002C99.5 56.3941 94.1671 61.8966 85.1502 65.9542C76.1802 69.9907 63.7532 72.5002 50 72.5002C36.2468 72.5002 23.8198 69.9907 14.8498 65.9542C5.83292 61.8966 0.5 56.3941 0.5 50.5002C0.5 44.6063 5.83292 39.1039 14.8498 35.0463C23.8198 31.0098 36.2468 28.5002 50 28.5002C63.7532 28.5002 76.1802 31.0098 85.1502 35.0463C94.1671 39.1039 99.5 44.6063 99.5 50.5002Z" stroke="#0A1E25"/>
<path d="M99.5 22.5002C99.5 28.3941 94.1671 33.8966 85.1502 37.9542C76.1802 41.9907 63.7532 44.5002 50 44.5002C36.2468 44.5002 23.8198 41.9907 14.8498 37.9542C5.83292 33.8966 0.5 28.3941 0.5 22.5002C0.5 16.6063 5.83292 11.1039 14.8498 7.0463C23.8198 3.00981 36.2468 0.500244 50 0.500244C63.7532 0.500244 76.1802 3.00981 85.1502 7.0463C94.1671 11.1039 99.5 16.6063 99.5 22.5002Z" stroke="#0A1E25"/>
</svg>
