<svg width="100" height="100" viewBox="0 0 100 100" fill="none" xmlns="http://www.w3.org/2000/svg">
<path d="M0.5 75.0322C0.500001 68.4292 5.87274 62.3164 14.868 57.8244C23.8333 53.3476 36.2536 50.5641 50 50.5641C63.7464 50.5641 76.1667 53.3476 85.132 57.8245C94.1273 62.3164 99.5 68.4292 99.5 75.0322C99.5 81.6352 94.1273 87.7481 85.132 92.24C76.1667 96.7168 63.7464 99.5003 50 99.5003C36.2536 99.5003 23.8333 96.7168 14.868 92.24C5.87273 87.748 0.499999 81.6352 0.5 75.0322Z" stroke="#0A1E25"/>
<path d="M5.01929 73.5573C2.75806 67.3525 5.71332 59.7733 12.6277 52.4798C19.5191 45.2106 30.2371 38.3525 43.1545 33.657C56.0718 28.9614 68.6963 27.3344 78.6541 28.4789C88.6452 29.6273 95.7877 33.5363 98.049 39.7414C100.31 45.9461 97.355 53.5254 90.4406 60.8189C83.5492 68.0881 72.8312 74.9462 59.9138 79.6417C46.9965 84.3372 34.372 85.9643 24.4142 84.8197C14.4231 83.6714 7.28063 79.7623 5.01929 73.5573Z" stroke="#0A1E25"/>
<path d="M7.22962 69.1475C2.97975 64.0892 3.16134 55.9576 7.16095 46.7423C11.1472 37.5576 18.8702 27.4521 29.4005 18.6274C39.9308 9.80275 51.2367 3.96155 60.9858 1.63566C70.7676 -0.698002 78.8183 0.535445 83.0684 5.59414C87.3183 10.6525 87.1367 18.7841 83.1371 27.9994C79.1508 37.184 71.4279 47.2896 60.8976 56.1142C50.3673 64.9389 39.0614 70.7801 29.3122 73.106C19.5305 75.4397 11.4798 74.2062 7.22962 69.1475Z" stroke="#0A1E25"/>
</svg>
