<svg width="102" height="102" viewBox="0 0 102 102" fill="none" xmlns="http://www.w3.org/2000/svg">
<path d="M26 7.68936C33.3543 3.4351 41.8928 1.00025 51 1.00025C62.4817 1.00025 73.0594 4.87028 81.5 11.3771M15.5 15.7902C6.53683 24.8267 0.999998 37.2669 0.999997 51.0002C0.999994 78.6145 23.3858 101 51 101C56.5956 101 61.9765 100.081 67 98.3855M85 14.3393C94.8414 23.4707 101 36.5163 101 51.0002C101 69.7129 90.7203 86.0247 75.5 94.5965" stroke="#0A1E25"/>
<path d="M21 5.50024C24.5899 5.50024 27.5 8.41039 27.5 12.0002C27.5 15.5901 24.5899 18.5002 21 18.5002C17.4101 18.5002 14.5 15.5901 14.5 12.0002C14.5 8.41039 17.4101 5.50024 21 5.50024Z" stroke="#0A1E25"/>
<path d="M83 10.5002C84.3807 10.5002 85.5 11.6195 85.5 13.0002C85.5 14.381 84.3807 15.5002 83 15.5002C81.6193 15.5002 80.5 14.381 80.5 13.0002C80.5 11.6195 81.6193 10.5002 83 10.5002Z" stroke="#0A1E25"/>
<circle cx="71" cy="96.0002" r="4.5" transform="rotate(-90 71 96.0002)" stroke="#0A1E25"/>
<path d="M17.5 51.0002C17.5 32.4987 32.4985 17.5002 51 17.5002C69.5015 17.5003 84.5 32.4987 84.5 51.0002C84.5 69.5018 69.5015 84.5002 51 84.5002C32.4985 84.5002 17.5 69.5018 17.5 51.0002Z" stroke="#0A1E25"/>
</svg>
